<svg version="1.2" xmlns="http://www.w3.org/2000/svg" viewBox="0 0 103 18" width="103" height="18"><style>.a{fill:#8eb50d}.b{fill:#f9f9f9}.c{fill:none}</style><path fill-rule="evenodd" class="a" d="m99.5 16.8v-3.2h3.4v3.2zm3.3-5.5h-3.2l-0.1-11.3h3.4c0 0-0.1 11.3-0.1 11.3zm-6-2.6v8.1h-3.6v-8c0-1.5-1.3-2.8-2.8-2.8-1.5 0-2.8 1.3-2.8 2.8v8h-3.6v-8.1c0-3.5 2.8-6.2 6.4-6.2 3.6 0 6.4 2.7 6.4 6.2zm-15 1.1c0 4.1-3.3 7.4-7.3 7.4-4 0-7.3-3.3-7.3-7.4 0-4 3.3-7.3 7.3-7.3 4 0 7.3 3.3 7.3 7.3zm-4.5 2.8c0.7-0.7 1.1-1.7 1.1-2.8 0-1-0.4-2-1.1-2.7-0.7-0.8-1.7-1.2-2.8-1.2-1 0-2 0.4-2.7 1.2-0.8 0.7-1.2 1.7-1.2 2.7 0 1.1 0.4 2.1 1.2 2.8 0.7 0.8 1.7 1.2 2.7 1.2 1.1 0 2.1-0.4 2.8-1.2z"/><path fill-rule="evenodd" class="b" d="m65.2 11.1h-10.7l0.1 0.1c0.2 0.9 0.7 1.5 1.5 2.1q0.3 0.1 0.6 0.3 0.3 0.1 0.6 0.2 0.4 0.1 0.7 0.1 0.3 0.1 0.7 0.1 2.2 0 3.5-1.4l2.4 2.1q-2.3 2.4-6 2.5c-1.9 0-3.8-0.7-5.1-2-1.5-1.3-2.2-3.1-2.2-5.3 0-2 0.7-3.9 2-5.3q0.5-0.5 1.1-0.9 0.6-0.4 1.2-0.6 0.6-0.3 1.3-0.4 0.7-0.2 1.4-0.2c1.8 0 3.4 0.6 4.7 1.8 1.3 1.1 2.1 2.7 2.2 4.6 0.1 1.2 0 2.2 0 2.2zm-8.2-5.3q-0.6 0.2-1.1 0.6-0.5 0.4-0.9 1-0.3 0.5-0.5 1.2h7.5q0-0.3-0.1-0.6-0.1-0.3-0.3-0.5-0.1-0.3-0.3-0.5-0.2-0.2-0.4-0.4c-0.7-0.7-1.6-1-2.6-1q-0.7 0-1.3 0.2zm-11.3-2.8q1 0.5 1.8 1.3 0.7 0.7 1.2 1.8 0.4 1 0.4 2.1v8.6h-3.5v-8.6c0-1.2-0.9-2.1-2.1-2.1-1.1 0-2.1 0.9-2.1 2.1v8.6h-3.4v-8.6c0-1.2-0.9-2.1-2.1-2.1-1.1 0-2.1 0.9-2.1 2.1v8.6h-3.4v-8.6q0-1.1 0.4-2.1 0.4-1.1 1.2-1.8 0.8-0.8 1.8-1.3 1-0.4 2.1-0.4 0.5 0 1.1 0.1 0.5 0.1 1 0.3 0.4 0.2 0.9 0.5 0.4 0.3 0.8 0.6c1-0.9 2.4-1.5 3.8-1.5q1.1 0 2.2 0.4zm-17.6 6.8c0 4.1-3.2 7.4-7.3 7.4q-0.8 0-1.6-0.2-0.8-0.2-1.6-0.6-0.7-0.4-1.4-0.9-0.6-0.5-1.1-1.2-0.4-0.5-0.7-1-0.3-0.5-0.5-1.1-0.2-0.6-0.2-1.2-0.1-0.6-0.1-1.2 0-0.6 0.1-1.2 0-0.6 0.2-1.1 0.2-0.6 0.5-1.1 0.3-0.6 0.7-1 0.5-0.7 1.1-1.2 0.7-0.6 1.4-0.9 0.8-0.4 1.6-0.6 0.8-0.2 1.7-0.2c4 0 7.2 3.3 7.2 7.3zm-4.5 2.8c0.8-0.7 1.2-1.7 1.2-2.8 0-1-0.4-2-1.2-2.7-0.7-0.8-1.7-1.2-2.7-1.2q-0.4 0-0.8 0.1-0.4 0.1-0.7 0.2-0.4 0.2-0.7 0.4-0.3 0.2-0.6 0.5c-0.7 0.7-1.2 1.7-1.2 2.7q0 0.4 0.1 0.8 0.1 0.4 0.2 0.8 0.2 0.3 0.4 0.7 0.2 0.3 0.5 0.5 0.3 0.3 0.6 0.5 0.3 0.2 0.7 0.4 0.3 0.1 0.7 0.2 0.4 0.1 0.7 0.1c1.1 0 2.1-0.4 2.8-1.2zm-19.1-5.5c-0.7 0.7-1.1 1.7-1.1 2.7 0 1.1 0.4 2.1 1.1 2.8 0.8 0.7 1.8 1.2 2.8 1.2q0.5 0 1-0.2 0.4-0.1 0.9-0.3 0.4-0.2 0.7-0.6 0.4-0.3 0.7-0.7l1.9 3c-1.4 1.3-3.2 2.2-5.2 2.2-4 0-7.3-3.3-7.3-7.4 0-4 3.3-7.3 7.3-7.3q0.7 0 1.4 0.2 0.8 0.1 1.4 0.4 0.7 0.3 1.3 0.7 0.6 0.4 1.1 1l-1.9 3c-0.7-1.1-1.9-1.9-3.3-1.9-1 0-2 0.4-2.8 1.2z"/><path fill-rule="evenodd" class="c" d="m-36-8h176v33h-176z"/></svg>